:SAMPLES-PER-SECOND 30
:FULLY-SPECIFIED
:DEGREES
382
root  2.85003 31.0465 9.18313 73.1208 9.15685 92.2548
Spine  -4.3743 -3.33112 -10.2272
Spine1  -3.5087 10.714 2.6909
Neck  3.97569e-016 0 -2.38542e-015
Head  33.2694 -6.92495 16.9477
R_Clavicle  0.481753 -9.68651 2.67318
R_UpperArm  45.2703 14.649 50.5367
R_Forearm  19.6257 -12.1494 10.3105
R_Hand  -0.750409 7.80756 -16.9257
L_Clavicle  -0.378981 13.6337 -0.215927
L_UpperArm  -27.1791 -16.4655 23.2628
L_Forearm  -5.08439 20.6453 25.787
L_Hand  -0.288757 0.876011 -5.0385
L_Thigh  -0.883413 -2.6159 -34.8018
L_Calf  1.75694 -3.37861 25.2432
L_Foot  6.20909 5.62583 18.3086
L_Toe0  2.11476 -0.314037 1.97225
R_Thigh  -4.20697 -4.14291 7.49208
R_Calf  -6.83038 11.0676 37.3017
R_Foot  2.12103 2.67611 -15.5217
R_Toe0  -1.78873 -0.273531 -17.3235
383
root  2.39601 30.8194 10.2857 72.4583 8.44558 91.0036
Spine  -4.14492 -3.75747 -10.6728
Spine1  -2.97255 12.7796 4.38357
Neck  3.97569e-016 0 -2.38542e-015
Head  34.6088 -7.94257 15.83
R_Clavicle  0.540718 -9.76403 3.19874
R_UpperArm  40.2892 18.7861 46.0914
R_Forearm  18.4948 -20.7685 18.0117
R_Hand  -0.712837 8.30111 -16.7625
L_Clavicle  -0.402478 14.2216 0.119383
L_UpperArm  -30.7009 -15.4809 22.8969
L_Forearm  -4.34487 24.188 31.2417
L_Hand  -0.270747 -0.393963 -5.94135
L_Thigh  0.229578 -1.41754 -37.7383
L_Calf  -0.889617 -3.71375 27.972
L_Foot  5.9359 4.77569 18.6092
L_Toe0  1.53782 -0.259183 2.47736
R_Thigh  -6.59159 -2.10355 8.21585
R_Calf  -9.75035 10.971 36.9178
R_Foot  2.46594 4.23797 -16.9946
R_Toe0  -1.78905 -0.274785 -17.3235
384
root  1.69114 30.5633 11.4097 72.8727 7.67903 89.1211
Spine  -4.39727 -4.10899 -8.79109
Spine1  -3.00379 15.7975 4.32904
Neck  3.97569e-016 0 -2.38542e-015
Head  36.688 -9.40374 14.519
R_Clavicle  0.556994 -10.1559 3.38126
R_UpperArm  42.1355 18.6646 41.1616
R_Forearm  16.2135 -25.9914 22.0469
R_Hand  -0.45985 8.5517 -14.9649
L_Clavicle  -0.409428 14.4946 0.0636946
L_UpperArm  -35.7692 -10.8673 23.9398
L_Forearm  -2.99802 26.2294 34.6663
L_Hand  -0.19125 -2.22615 -6.66925
L_Thigh  0.732887 1.481 -37.5679
L_Calf  -0.413719 -3.21161 23.854
L_Foot  4.06777 0.922005 17.359
L_Toe0  3.64079 -0.979283 6.2651
R_Thigh  -6.51797 0.940246 8.90168
R_Calf  -10.1829 9.49672 31.2175
R_Foot  2.16837 2.82982 -15.805
R_Toe0  -1.78932 -0.27638 -17.3234
385
root  0.887238 30.3168 12.5589 74.7802 6.96839 86.9164
Spine  -5.08879 -3.13852 -5.7394
Spine1  -3.63106 18.233 3.72605
Neck  3.97569e-016 0 -2.38542e-015
Head  38.2982 -10.3255 12.2557
R_Clavicle  0.481934 -11.9244 2.79004
R_UpperArm  46.5403 15.3774 38.9029
R_Forearm  18.0527 -24.5018 21.053
R_Hand  -0.26203 7.81339 -13.1146
L_Clavicle  -0.4089 14.6114 -0.248675
L_UpperArm  -36.8955 -4.93272 25.7743
L_Forearm  -3.5242 27.1319 36.1363
L_Hand  -0.104465 -3.64774 -6.82172
L_Thigh  1.43054 5.14545 -33.5458
L_Calf  0.907916 -1.74956 12.5451
L_Foot  1.66919 -1.89305 11.3672
L_Toe0  3.22344 -1.5411 16.4548
R_Thigh  -4.88201 3.64785 8.89109
R_Calf  -9.03329 7.77902 25.0604
R_Foot  1.83067 1.98652 -13.3704
R_Toe0  -1.78939 -0.278091 -17.3233
386
root  0.123296 30.139 13.7268 77.7033 6.17376 84.4339
Spine  -5.60948 -0.54417 -4.11777
Spine1  -3.92944 19.8469 5.0108
Neck  3.97569e-016 0 -2.38542e-015
Head  38.5761 -10.5314 8.68578
R_Clavicle  0.408311 -15.0089 1.93318
R_UpperArm  45.8634 12.1693 39.4113
R_Forearm  26.07 -17.9208 15.6548
R_Hand  -0.328522 6.32768 -12.7846
L_Clavicle  -0.402666 14.6105 -0.742265
L_UpperArm  -31.5343 0.324047 27.2334
L_Forearm  -5.02723 27.6557 36.6282
L_Hand  -0.100099 -3.35214 -5.3946
L_Thigh  3.33514 8.17737 -26.4742
L_Calf  -1.91052 0.211911 -1.91172
L_Foot  0.479071 1.93377 0.288558
L_Toe0  -6.17604 1.83382 19.8415
R_Thigh  -2.05822 5.73903 8.38341
R_Calf  -7.79338 6.50399 20.7544
R_Foot  1.6988 2.62059 -10.6383
R_Toe0  -1.78909 -0.279707 -17.3237
387
root  -0.574826 29.9542 14.9566 80.0519 5.80269 82.1665
Spine  -5.39691 1.99729 -4.03846
Spine1  -3.09579 21.0727 7.74238
Neck  3.97569e-016 0 -2.38542e-015
Head  38.2329 -10.6359 4.79736
R_Clavicle  0.395686 -17.9133 1.47086
R_UpperArm  42.1736 10.3697 40.6129
R_Forearm  32.5674 -9.09817 7.6186
R_Hand  -0.534521 4.79676 -13.749
L_Clavicle  -0.406902 14.8176 -1.04283
L_UpperArm  -23.2939 5.18382 27.7877
L_Forearm  -3.7116 27.5115 36.0221
L_Hand  -0.106636 -1.20689 -2.79335
L_Thigh  5.13515 9.7269 -19.0966
L_Calf  -7.07992 1.98374 -15.042
L_Foot  -0.356991 7.91318 -8.74721
L_Toe0  -14.7454 4.0315 6.77497
R_Thigh  1.29173 7.5499 7.49958
R_Calf  -6.60683 5.39206 17.1725
R_Foot  1.22062 1.97051 -6.95425
R_Toe0  -1.78863 -0.28099 -17.3242
388
root  -1.2025 29.9449 16.3274 80.9396 6.31579 81.0788
Spine  -4.44028 3.14147 -4.1138
Spine1  -1.66469 21.2541 9.73827
Neck  3.97569e-016 0 -2.38542e-015
Head  37.9729 -10.7079 2.51263
R_Clavicle  0.402272 -19.2539 1.41452
R_UpperArm  37.6289 8.39164 40.2691
R_Forearm  34.9505 1.3418 -1.142
R_Hand  -0.645294 3.79684 -14.2742
L_Clavicle  -0.440928 15.6698 -0.76783
L_UpperArm  -16.1941 10.3145 27.7197
L_Forearm  1.55771 26.73 35.0802
L_Hand  -0.0521083 1.24576 -0.848707
L_Thigh  4.97113 9.45679 -13.9559
L_Calf  -10.8324 3.13383 -23.9598
L_Foot  0.30822 11.2581 -8.31441
L_Toe0  -4.24811 0.119494 -3.77779
R_Thigh  3.1228 8.80385 5.07376
R_Calf  -5.52463 4.59786 14.6657
R_Foot  0.425636 0.521344 -2.44717
R_Toe0  -1.7828 -0.279882 -17.266
